<svg width="29" height="29" viewBox="0 0 29 29" fill="none" xmlns="http://www.w3.org/2000/svg">
<g clip-path="url(#clip0_0_524)">
<path d="M28.9441 15.8396C28.6837 13.2206 27.5137 10.7516 25.6494 8.88721C24.0562 7.29405 22.1061 6.27026 20.0542 5.81503V4.37588C20.8923 4.16739 21.5152 3.40879 21.5152 2.50711C21.5152 1.4452 20.6513 0.581299 19.5894 0.581299H15.5112C14.4493 0.581299 13.5854 1.4452 13.5854 2.50711C13.5854 3.40873 14.2084 4.16733 15.0464 4.37588V5.81905C13.0008 6.27621 11.0572 7.29858 9.46848 8.88727C9.12081 9.23493 8.80022 9.59965 8.50676 9.97869C8.49255 9.97761 8.47833 9.97654 8.46383 9.97654H4.4275C4.11472 9.97654 3.86108 10.2301 3.86108 10.543C3.86108 10.8558 4.11472 11.1094 4.4275 11.1094H7.73604C7.32074 11.8046 6.98588 12.5348 6.73099 13.2864H0.566415C0.253641 13.2864 0 13.54 0 13.8529C0 14.1657 0.253641 14.4193 0.566415 14.4193H6.41091C6.24767 15.1358 6.15399 15.8651 6.1298 16.5964H3.62506C3.31228 16.5964 3.05864 16.85 3.05864 17.1628C3.05864 17.4756 3.31228 17.7292 3.62506 17.7292H6.14787C6.19567 18.4624 6.31355 19.1917 6.50154 19.9064H2.83208C2.5193 19.9064 2.26566 20.1599 2.26566 20.4728C2.26566 20.7856 2.5193 21.0392 2.83208 21.0392H6.86303C7.41868 22.5091 8.28705 23.8868 9.46848 25.0682C11.3346 26.9343 13.8062 28.1047 16.4279 28.3637C16.8021 28.4006 17.1765 28.4189 17.5505 28.4189C19.7607 28.4189 21.9429 27.7792 23.7945 26.5735C24.0567 26.4027 24.1308 26.0519 23.9601 25.7897C23.7894 25.5276 23.4385 25.4534 23.1763 25.6242C19.1232 28.2635 13.6951 27.6928 10.2695 24.2672C6.25011 20.2478 6.25011 13.7078 10.2695 9.68835C14.2888 5.66901 20.8288 5.66901 24.8483 9.68835C28.2694 13.1095 28.8432 18.533 26.2126 22.5841C26.0422 22.8465 26.1168 23.1973 26.3791 23.3676C26.6416 23.538 26.9923 23.4634 27.1626 23.201C28.5681 21.0365 29.2008 18.4222 28.9441 15.8396ZM14.7182 2.50717C14.7182 2.06989 15.0739 1.71419 15.5112 1.71419H19.5894C20.0267 1.71419 20.3824 2.06989 20.3824 2.50717C20.3824 2.94444 20.0267 3.30015 19.5894 3.30015H19.4878H15.6128H15.5112C15.0739 3.30015 14.7182 2.94438 14.7182 2.50717ZM16.1792 5.62432V4.43298H18.9214V5.62228C18.0108 5.51398 17.0896 5.51466 16.1792 5.62432Z" fill="#75ABD6"/>
<path d="M25.249 24.1011C25.0995 24.1011 24.9539 24.1617 24.8486 24.267C24.7427 24.3724 24.6826 24.5185 24.6826 24.6675C24.6826 24.8164 24.7427 24.9626 24.8486 25.0679C24.9539 25.1738 25.0995 25.2339 25.249 25.2339C25.398 25.2339 25.5436 25.1738 25.6495 25.0679C25.7548 24.9626 25.8154 24.8164 25.8154 24.6675C25.8154 24.5185 25.7549 24.3724 25.6495 24.267C25.5436 24.1617 25.3979 24.1011 25.249 24.1011Z" fill="#75ABD6"/>
<path d="M17.5587 8.19092C12.7137 8.19092 8.77197 12.1326 8.77197 16.9777C8.77197 21.8227 12.7137 25.7644 17.5587 25.7644C22.4037 25.7644 26.3454 21.8227 26.3454 16.9777C26.3454 12.1326 22.4037 8.19092 17.5587 8.19092ZM17.5587 24.6316C13.3383 24.6316 9.9048 21.198 9.9048 16.9777C9.9048 12.7573 13.3383 9.32375 17.5587 9.32375C21.7791 9.32375 25.2126 12.7573 25.2126 16.9777C25.2126 21.198 21.7791 24.6316 17.5587 24.6316Z" fill="#75ABD6"/>
<path d="M21.142 12.5936L18.3365 15.399C18.1019 15.283 17.838 15.2175 17.5591 15.2175C17.2801 15.2175 17.0162 15.283 16.7816 15.399L15.5261 14.1434C15.3048 13.9223 14.9463 13.9223 14.725 14.1434C14.5038 14.3646 14.5038 14.7233 14.725 14.9445L15.9805 16.2C15.8645 16.4347 15.799 16.6985 15.799 16.9775C15.799 17.948 16.5885 18.7376 17.5591 18.7376C18.5296 18.7376 19.3192 17.948 19.3192 16.9775C19.3192 16.6985 19.2536 16.4347 19.1376 16.2L21.8607 13.4769L21.943 13.3946C22.1642 13.1735 22.1642 12.8148 21.943 12.5936C21.7218 12.3724 21.3633 12.3724 21.142 12.5936ZM17.5591 17.6048C17.2132 17.6048 16.9318 17.3234 16.9318 16.9776C16.9318 16.6317 17.2132 16.3503 17.5591 16.3503C17.9049 16.3503 18.1863 16.6317 18.1863 16.9776C18.1863 17.3234 17.9049 17.6048 17.5591 17.6048Z" fill="#75ABD6"/>
<path d="M23.6151 16.4182H23.0903C22.7776 16.4182 22.5239 16.6718 22.5239 16.9846C22.5239 17.2974 22.7776 17.551 23.0903 17.551H23.6151C23.9279 17.551 24.1815 17.2974 24.1815 16.9846C24.1815 16.6718 23.9279 16.4182 23.6151 16.4182Z" fill="#75ABD6"/>
<path d="M12.0276 16.4043H11.5029C11.1902 16.4043 10.9365 16.6579 10.9365 16.9707C10.9365 17.2835 11.1902 17.5371 11.5029 17.5371H12.0276C12.3404 17.5371 12.5941 17.2835 12.5941 16.9707C12.5941 16.6579 12.3404 16.4043 12.0276 16.4043Z" fill="#75ABD6"/>
<path d="M17.5659 12.0128C17.8787 12.0128 18.1323 11.7592 18.1323 11.4463V10.9216C18.1323 10.6088 17.8787 10.3552 17.5659 10.3552C17.2531 10.3552 16.9995 10.6088 16.9995 10.9216V11.4463C16.9995 11.7592 17.2531 12.0128 17.5659 12.0128Z" fill="#75ABD6"/>
<path d="M17.5518 21.9426C17.239 21.9426 16.9854 22.1962 16.9854 22.509V23.0338C16.9854 23.3466 17.239 23.6002 17.5518 23.6002C17.8645 23.6002 18.1182 23.3466 18.1182 23.0338V22.509C18.1182 22.1962 17.8645 21.9426 17.5518 21.9426Z" fill="#75ABD6"/>
<path d="M0.566406 19.9062C0.417441 19.9062 0.271309 19.9669 0.165957 20.0722C0.0606055 20.1776 0 20.3237 0 20.4727C0 20.6222 0.0605488 20.7678 0.165957 20.8731C0.271365 20.9785 0.417441 21.0391 0.566406 21.0391C0.715371 21.0391 0.861504 20.9785 0.966799 20.8731C1.07215 20.7678 1.13281 20.6216 1.13281 20.4727C1.13281 20.3237 1.07221 20.1776 0.966799 20.0722C0.861504 19.9669 0.715371 19.9062 0.566406 19.9062Z" fill="#75ABD6"/>
</g>
<defs>
<clipPath id="clip0_0_524">
<rect width="29" height="29" fill="white"/>
</clipPath>
</defs>
</svg>
