<svg width="36" height="36" viewBox="0 0 36 36" fill="none" xmlns="http://www.w3.org/2000/svg">
<g clip-path="url(#clip0_0_487)">
<path d="M0.707519 23.6365C1.09584 23.6365 1.41064 23.3217 1.41064 22.9333C1.41064 22.545 1.09584 22.2302 0.707519 22.2302C0.319194 22.2302 0.00439453 22.545 0.00439453 22.9333C0.00439453 23.3217 0.319194 23.6365 0.707519 23.6365Z" fill="#75ABD6"/>
<path d="M18.2315 7.05715C17.2462 4.59164 14.8944 2.99864 12.24 2.99864C11.6078 2.99864 10.9808 3.09314 10.3731 3.27757C9.2854 2.44149 7.92485 1.9436 6.45005 1.9436C2.8935 1.94353 0 4.83703 0 8.39365V19.7498C0 20.1349 0.322312 20.4573 0.707555 20.4573C1.09273 20.4573 1.41511 20.135 1.41511 19.7498V18.2668H11.4853V27.6062C11.4853 30.3826 9.22655 32.6413 6.45019 32.6413C3.67383 32.6413 1.41511 30.3826 1.41511 27.6062V26.1409C1.41511 25.7558 1.0928 25.4334 0.707555 25.4334C0.322312 25.4335 0 25.7558 0 26.1409V27.6062C0 31.1628 2.8935 34.0563 6.45012 34.0563C9.74721 34.0563 12.4741 31.5695 12.8545 28.3731L13.3791 29.6852C14.3864 32.2058 16.8151 33.7424 19.3769 33.7423C20.1719 33.7423 20.9797 33.5943 21.7618 33.2819C25.0646 31.9623 26.678 28.2017 25.3586 24.8993L18.2315 7.05715ZM16.9175 7.5821L20.0551 15.437L12.9002 18.2953V8.39365C12.9002 6.91463 12.3995 5.55057 11.5592 4.46128C11.7847 4.43021 12.0119 4.41361 12.2401 4.41361C14.3122 4.41368 16.1483 5.65744 16.9175 7.5821ZM1.41504 16.8518V8.39365C1.41504 5.61729 3.67376 3.35857 6.45012 3.35857C9.22648 3.35857 11.4852 5.61729 11.4852 8.39365V16.8518H1.41504ZM21.2367 31.9678C18.6588 32.9978 15.7234 31.7382 14.693 29.1599L12.9094 24.6992C12.9066 24.6923 12.9031 24.686 12.9002 24.6792V19.819L20.58 16.751L24.0444 25.4241C25.0745 28.0023 23.8149 30.9377 21.2367 31.9678Z" fill="#75ABD6"/>
<path d="M33.0925 11.3714C32.9063 11.2678 32.7137 11.1749 32.5165 11.0929C32.6736 10.5746 32.7589 10.0256 32.7589 9.45675C32.7589 6.34071 30.2237 3.80566 27.1077 3.80566C23.9917 3.80566 21.4565 6.34071 21.4565 9.45675C21.4565 11.8053 22.897 13.8233 24.9406 14.6751C24.1717 17.1952 25.2554 19.948 27.6069 21.2536C28.4734 21.7342 29.4125 21.9623 30.3396 21.9622C32.328 21.962 34.2598 20.9123 35.291 19.0544C36.8028 16.3299 35.8164 12.8832 33.0925 11.3714ZM32.4053 12.6083C34.2364 13.6247 35.0191 15.8067 34.3446 17.7192L29.0651 14.758C30.2685 14.3123 31.2803 13.4682 31.9387 12.3862C32.0986 12.4511 32.2548 12.5246 32.4053 12.6083ZM27.1077 5.2207C29.2023 5.2207 30.9457 6.74923 31.2836 8.74927H22.9318C23.2697 6.74923 25.0131 5.2207 27.1077 5.2207ZM22.9318 10.1643H31.2836C30.9458 12.1643 29.2024 13.6929 27.1078 13.6929C25.0132 13.6929 23.2697 12.1643 22.9318 10.1643ZM28.2935 20.0164C26.5195 19.0315 25.7078 16.9481 26.3059 15.0501C26.466 15.073 26.6282 15.0897 26.7924 15.0988C26.816 15.1162 33.6582 18.9567 33.6582 18.9567C32.3923 20.5418 30.1256 21.0326 28.2935 20.0164Z" fill="#75ABD6"/>
</g>
<defs>
<clipPath id="clip0_0_487">
<rect width="36" height="36" fill="white"/>
</clipPath>
</defs>
</svg>
