<svg width="34" height="34" viewBox="0 0 34 34" fill="none" xmlns="http://www.w3.org/2000/svg">
<path d="M12.6089 17.0002L10.1332 26.6576C9.99099 27.212 10.551 27.6861 11.0744 27.4539L33.2475 17.6267C33.5193 17.5065 33.6552 17.2533 33.6552 17.0002L21.9646 14.6716L12.6093 17.0006L12.6089 17.0002Z" fill="#64B9FC"/>
<path d="M10.1324 7.34222L12.6086 16.9999L10.1328 26.6572C9.99092 27.2115 10.5509 27.6853 11.074 27.4538L12.4602 26.8392C12.4594 26.7799 12.4663 26.7191 12.4821 26.6572L14.9582 16.9995L12.4825 7.34218C12.4667 7.28028 12.4598 7.2195 12.4605 7.16025L11.074 6.54602C10.5505 6.31417 9.99047 6.78802 10.1324 7.34222Z" fill="#31A7FB"/>
<path d="M10.1332 7.3431L12.6092 17.0008L33.6552 17.0008C33.6552 16.7473 33.5189 16.4945 33.2476 16.374L11.0746 6.54701C10.5512 6.31475 9.99074 6.78887 10.1332 7.3431Z" fill="#B5DBFD"/>
<path d="M10.1342 7.34408L12.61 17.0022L14.96 17.0022L12.4838 7.34446C12.4681 7.28256 12.4608 7.22215 12.4615 7.16293L11.0754 6.54833C10.5523 6.31603 9.9919 6.79026 10.1342 7.34408Z" fill="#8DCAFC"/>
<path d="M11.9398 6.93085C11.5136 8.93315 12.0786 11.1043 13.6344 12.6601C16.0771 15.1028 20.0371 15.1028 22.4798 12.6601C22.7221 12.4178 22.9398 12.1609 23.134 11.892L11.9398 6.93085Z" fill="#8DCAFC"/>
</svg>
