<svg width="20" height="20" viewBox="0 0 20 20" fill="none" xmlns="http://www.w3.org/2000/svg">
<g clip-path="url(#clip0_0_994)">
<path d="M11.9141 9.99976C11.9141 11.0569 11.0571 11.9138 10 11.9138C8.94287 11.9138 8.08594 11.0569 8.08594 9.99976C8.08594 8.94263 8.94287 8.08569 10 8.08569C11.0571 8.08569 11.9141 8.94263 11.9141 9.99976Z" fill="#75ABD6"/>
<path d="M14.4762 6.61319C14.3842 6.36386 14.2374 6.13818 14.0467 5.95294C13.8614 5.76221 13.6359 5.61542 13.3864 5.52341C13.1841 5.44482 12.8801 5.35129 12.3203 5.32581C11.7147 5.29819 11.5331 5.29224 9.99987 5.29224C8.46652 5.29224 8.28494 5.29803 7.67947 5.32565C7.11963 5.35129 6.81552 5.44482 6.61334 5.52341C6.36386 5.61542 6.13818 5.76221 5.95309 5.95294C5.76236 6.13818 5.61557 6.36371 5.52341 6.61319C5.44482 6.81552 5.35129 7.11963 5.32581 7.67948C5.29819 8.28495 5.29224 8.46652 5.29224 9.99988C5.29224 11.5331 5.29819 11.7147 5.32581 12.3203C5.35129 12.8801 5.44482 13.1841 5.52341 13.3864C5.61557 13.6359 5.76221 13.8614 5.95294 14.0467C6.13818 14.2374 6.36371 14.3842 6.61319 14.4762C6.81552 14.5549 7.11963 14.6485 7.67947 14.674C8.28494 14.7016 8.46637 14.7074 9.99972 14.7074C11.5332 14.7074 11.7148 14.7016 12.3201 14.674C12.88 14.6485 13.1841 14.5549 13.3864 14.4762C13.8872 14.283 14.283 13.8872 14.4762 13.3864C14.5548 13.1841 14.6483 12.8801 14.6739 12.3203C14.7016 11.7147 14.7074 11.5331 14.7074 9.99988C14.7074 8.46652 14.7016 8.28495 14.6739 7.67948C14.6485 7.11963 14.5549 6.81552 14.4762 6.61319ZM9.99987 12.9483C8.3713 12.9483 7.05112 11.6283 7.05112 9.99973C7.05112 8.37116 8.3713 7.05112 9.99987 7.05112C11.6283 7.05112 12.9485 8.37116 12.9485 9.99973C12.9485 11.6283 11.6283 12.9483 9.99987 12.9483ZM13.0651 7.62363C12.6845 7.62363 12.376 7.3151 12.376 6.93454C12.376 6.55399 12.6845 6.24545 13.0651 6.24545C13.4456 6.24545 13.7541 6.55399 13.7541 6.93454C13.754 7.3151 13.4456 7.62363 13.0651 7.62363Z" fill="#75ABD6"/>
<path d="M10 -0.000244141C4.478 -0.000244141 0 4.47775 0 9.99976C0 15.5218 4.478 19.9998 10 19.9998C15.522 19.9998 20 15.5218 20 9.99976C20 4.47775 15.522 -0.000244141 10 -0.000244141ZM15.7076 12.3672C15.6798 12.9784 15.5826 13.3958 15.4407 13.761C15.1424 14.5324 14.5326 15.1421 13.7613 15.4404C13.3961 15.5823 12.9787 15.6794 12.3676 15.7073C11.7552 15.7352 11.5596 15.7419 10.0002 15.7419C8.44055 15.7419 8.24509 15.7352 7.6326 15.7073C7.02148 15.6794 6.604 15.5823 6.23886 15.4404C5.85556 15.2962 5.50858 15.0703 5.22171 14.778C4.92966 14.4913 4.70367 14.1442 4.55948 13.761C4.41757 13.3959 4.32037 12.9784 4.2926 12.3673C4.26437 11.7548 4.25781 11.5592 4.25781 9.99976C4.25781 8.44031 4.26437 8.24469 4.29245 7.63235C4.32022 7.02109 4.41727 6.60376 4.55917 6.23846C4.70337 5.85532 4.9295 5.50818 5.22171 5.22147C5.50842 4.92926 5.85556 4.70328 6.23871 4.55908C6.604 4.41718 7.02133 4.32013 7.6326 4.29221C8.24493 4.26428 8.44055 4.25757 10 4.25757C11.5594 4.25757 11.7551 4.26428 12.3674 4.29236C12.9787 4.32013 13.396 4.41718 13.7613 4.55893C14.1444 4.70312 14.4916 4.92926 14.7784 5.22147C15.0705 5.50833 15.2966 5.85532 15.4407 6.23846C15.5827 6.60376 15.6798 7.02109 15.7077 7.63235C15.7356 8.24469 15.7422 8.44031 15.7422 9.99976C15.7422 11.5592 15.7356 11.7548 15.7076 12.3672Z" fill="#75ABD6"/>
</g>
<defs>
<clipPath id="clip0_0_994">
<rect width="20" height="20" fill="white" transform="translate(0 -0.000244141)"/>
</clipPath>
</defs>
</svg>
