<svg width="40" height="43" viewBox="0 0 40 43" fill="none" xmlns="http://www.w3.org/2000/svg">
<g clip-path="url(#clip0_0_712)">
<path d="M16.5638 25.1942C12.7459 21.0899 11.8838 16.9856 11.6894 15.3413C11.635 14.8866 11.7806 14.4306 12.0831 14.1076L15.1728 10.7877C15.6273 10.2994 15.7079 9.53847 15.3673 8.9528L10.448 0.741285C10.0711 0.0927624 9.29724 -0.141296 8.66108 0.200819L0.763837 4.19908C0.249394 4.47139 -0.0531934 5.05897 0.00521584 5.6722C0.419009 9.89806 2.1328 20.2863 11.6294 30.4958C21.1259 40.7053 30.788 42.5469 34.7211 42.9917C35.2915 43.0545 35.8381 42.7293 36.0914 42.1762L39.8107 33.6867C40.1278 33.0043 39.9115 32.1746 39.3107 31.7687L31.6721 26.482C31.1276 26.1154 30.4198 26.2015 29.9652 26.6896L26.8769 30.0109C26.5765 30.3362 26.1523 30.4927 25.7294 30.4343C24.1997 30.2252 20.3818 29.2985 16.5638 25.1942Z" fill="#75ABD6"/>
</g>
<defs>
<clipPath id="clip0_0_712">
<rect width="40" height="43" fill="white"/>
</clipPath>
</defs>
</svg>
