<svg width="46" height="46" viewBox="0 0 46 46" fill="none" xmlns="http://www.w3.org/2000/svg">
<path d="M44.5625 38.0938H35.2188V33.7813H38.8125C39.2093 33.7813 39.5312 33.46 39.5312 33.0626V30.1876C39.5312 29.7901 39.2093 29.4688 38.8125 29.4688H27.3125C26.9158 29.4688 26.5938 29.7901 26.5938 30.1876V33.0626C26.5938 33.46 26.9158 33.7813 27.3125 33.7813H30.9062V38.0938H18.9851L13.6634 32.7722C13.7202 27.3866 15.3396 22.2526 18.3102 17.889L25.3668 24.9457C25.507 25.0859 25.691 25.1563 25.875 25.1563C26.059 25.1563 26.243 25.0859 26.3832 24.9457L27.3125 24.0164L29.6793 26.3832C29.8195 26.5234 30.0035 26.5938 30.1875 26.5938C30.3715 26.5938 30.5555 26.5234 30.6957 26.3832L35.0082 22.0707C35.2892 21.7897 35.2892 21.3354 35.0082 21.0544L32.6413 18.6876L33.5707 17.7582C33.8517 17.4772 33.8517 17.0229 33.5707 16.7419L19.1957 2.3669C18.9146 2.08587 18.4604 2.08587 18.1793 2.3669L17.25 3.29625L14.8832 0.929401C14.6021 0.64837 14.1479 0.64837 13.8668 0.929401L9.55434 5.2419C9.27331 5.52293 9.27331 5.97718 9.55434 6.25821L11.9212 8.62506L10.9918 9.5544C10.7108 9.83543 10.7108 10.2897 10.9918 10.5707L14.0954 13.6743C9.24241 18.8859 6.55069 25.6106 6.47666 32.7578L0.930781 38.3037C0.79925 38.4338 0.71875 38.6135 0.71875 38.8126V44.5626C0.71875 44.96 1.04075 45.2813 1.4375 45.2813H44.5625C44.9593 45.2813 45.2812 44.96 45.2812 44.5626V38.8126C45.2812 38.4151 44.9593 38.0938 44.5625 38.0938ZM28.0312 30.9063H38.0938V32.3438H34.5H31.625H28.0312V30.9063ZM32.3438 33.7813H33.7812V38.0938H32.3438V33.7813ZM7.48506 33.7813H12.6399L16.9524 38.0938H3.17256L7.48506 33.7813ZM22.0707 12.4294L19.1957 9.5544C18.9146 9.27337 18.4604 9.27337 18.1793 9.5544L15.0938 12.64L14.3132 11.8594L20.4844 5.68824L29.8899 15.0938L23.7188 21.265L19.1626 16.7088C19.9 15.7414 20.7022 14.8142 21.5769 13.9388L22.0707 13.445C22.3517 13.1647 22.3517 12.7104 22.0707 12.4294ZM33.4837 21.5626L30.1875 24.8587L28.3288 23.0001L31.625 19.7039L33.4837 21.5626ZM25.875 23.4212L24.7351 22.2813L30.9062 16.1101L32.0462 17.2501L25.875 23.4212ZM11.0788 5.75006L14.375 2.45387L16.2337 4.31256L12.9375 7.60875L11.0788 5.75006ZM18.6875 3.89137L19.4681 4.67193L13.2969 10.8431L12.5163 10.0626L18.6875 3.89137ZM15.8276 13.9395L18.6875 11.0789L20.5462 12.9376C15.3453 18.1456 12.4078 25.0118 12.2274 32.3438H7.91559C8.096 25.3885 10.8891 18.8773 15.8276 13.9395ZM43.8438 43.8438H2.15625V39.5313H43.8438V43.8438Z" fill="#75ABD6"/>
<path d="M32.3439 2.15625C38.6847 2.15625 43.8439 7.31544 43.8439 13.6562C43.8439 19.4896 39.4818 24.3994 33.698 25.0779L33.8648 26.5053C40.373 25.742 45.2814 20.2184 45.2814 13.6562C45.2814 6.52266 39.4775 0.71875 32.3439 0.71875C29.2784 0.71875 26.3057 1.81053 23.9726 3.79212L24.9027 4.8875C26.9763 3.12656 29.6191 2.15625 32.3439 2.15625Z" fill="#75ABD6"/>
<path d="M36.0726 4.23347C35.2475 3.40834 33.8086 3.40834 32.9834 4.23347C32.5709 4.64603 32.3438 5.19444 32.3438 5.77806C32.3438 6.36169 32.5709 6.91009 32.9834 7.32194L34.3649 8.70338C34.7774 9.11594 35.3258 9.34306 35.9087 9.34306C36.4924 9.34306 37.0408 9.11594 37.4533 8.70338C37.8666 8.29153 38.0938 7.74312 38.0938 7.1595C38.0938 6.57588 37.8666 6.02747 37.4541 5.61562L36.0726 4.23347ZM36.4377 7.68778C36.1553 7.97025 35.6637 7.97025 35.3819 7.68778L34.0005 6.30562C33.8589 6.16475 33.7812 5.97716 33.7812 5.77806C33.7812 5.57897 33.8589 5.39066 33.9998 5.24978C34.1406 5.10891 34.3289 5.03128 34.528 5.03128C34.7271 5.03128 34.9147 5.10891 35.0556 5.24978L36.437 6.63194C36.5786 6.77281 36.6562 6.96041 36.6562 7.1595C36.6562 7.35859 36.5786 7.54691 36.4377 7.68778Z" fill="#75ABD6"/>
<path d="M36.6562 15.7845C36.6562 16.3681 36.8834 16.9165 37.2959 17.3291C37.7085 17.7417 38.2569 17.9688 38.8405 17.9688C39.4242 17.9688 39.9726 17.7417 40.3844 17.3291L41.7658 15.9477C42.1784 15.5351 42.4055 14.9867 42.4055 14.4038C42.4055 13.8202 42.1784 13.2718 41.7658 12.8592C40.9414 12.0341 39.5018 12.0341 38.6774 12.8592L37.2959 14.2406C36.8834 14.6525 36.6562 15.2009 36.6562 15.7845ZM38.3123 15.2569L39.6944 13.8755C39.8353 13.7339 40.0229 13.6563 40.222 13.6563C40.4211 13.6563 40.6094 13.7339 40.7503 13.8748C40.8911 14.0157 40.9688 14.204 40.9688 14.4031C40.9688 14.6022 40.8911 14.7898 40.7503 14.9306L39.3681 16.3121C39.0863 16.5945 38.5947 16.5945 38.3123 16.3121C38.1714 16.1719 38.0938 15.9836 38.0938 15.7845C38.0938 15.5854 38.1714 15.3978 38.3123 15.2569Z" fill="#75ABD6"/>
<path d="M27.523 8.75153L28.5393 9.76784L28.829 9.4789C29.2416 9.06634 29.4687 8.51794 29.4687 7.93431C29.4687 7.35069 29.2416 6.80228 28.829 6.38972C28.0046 5.56459 26.5649 5.56459 25.7405 6.38972L25.4509 6.67937L26.4672 7.69569L26.7568 7.40603C27.0386 7.12356 27.5302 7.12356 27.8127 7.40603C27.9536 7.5469 28.0312 7.73522 28.0312 7.93431C28.0312 8.1334 27.9536 8.321 27.8127 8.46187L27.523 8.75153Z" fill="#75ABD6"/>
<path d="M34.2608 15.7988C34.8696 15.254 35.2189 14.4727 35.2189 13.6562C35.2189 12.0707 33.9294 10.7812 32.3439 10.7812C31.5274 10.7812 30.7461 11.1306 30.2013 11.7393L31.2722 12.6982C31.5454 12.3934 31.9356 12.2188 32.3439 12.2188C33.1367 12.2188 33.7814 12.8635 33.7814 13.6562C33.7814 14.0645 33.6067 14.4548 33.302 14.7279L34.2608 15.7988Z" fill="#75ABD6"/>
</svg>
