<svg width="44" height="44" viewBox="0 0 44 44" fill="none" xmlns="http://www.w3.org/2000/svg">
<g clip-path="url(#clip0_0_1318)">
<path d="M43.5303 34.2264C43.5303 33.3026 43.1706 32.4347 42.5183 31.7836C42.447 31.7121 42.3728 31.6449 42.2965 31.5807C43.315 30.9788 44 29.8701 44 28.6039C44 27.68 43.6403 26.8121 42.9879 26.161C42.5147 25.6868 41.9274 25.3682 41.2877 25.2287C41.8067 24.624 42.1214 23.839 42.1214 22.9815C42.1214 22.0988 41.7926 21.2679 41.1945 20.6272C42.5517 20.1608 43.5301 18.8726 43.5301 17.3595C43.5301 16.4353 43.1704 15.5673 42.5183 14.9162C42.2274 14.6249 41.8934 14.3924 41.5308 14.2238C42.1834 13.5946 42.5907 12.7125 42.5907 11.7364C42.5907 10.8127 42.2311 9.9452 41.5778 9.29285C41.3123 9.02842 41.0094 8.81048 40.6774 8.64497C40.3587 8.48615 39.9718 8.61575 39.813 8.93432C39.6542 9.25289 39.7838 9.63987 40.1024 9.79868C40.3103 9.90241 40.5007 10.0395 40.6676 10.2057C41.0765 10.6139 41.3017 11.1575 41.3017 11.7364C41.3017 12.9287 40.3343 13.8991 39.1435 13.9036H31.3701C31.4375 13.3972 31.4729 12.8809 31.4729 12.3564C31.4729 11.3966 31.3555 10.4638 31.1358 9.57077H37.8462C38.2021 9.57077 38.4907 9.2822 38.4907 8.92624C38.4907 8.57029 38.2021 8.28171 37.8462 8.28171H30.7377C29.0814 3.85556 24.8091 0.695801 19.8122 0.695801C13.3826 0.695801 8.15163 5.92675 8.15163 12.3564C8.15163 14.6671 8.82728 16.8231 9.99139 18.637L8.65798 19.9704C8.39638 19.8727 8.11683 19.8211 7.82928 19.8211C7.19781 19.8211 6.60424 20.067 6.1577 20.5135L0.692401 25.9788C0.245868 26.4252 0 27.0189 0 27.6503C0 28.2817 0.245868 28.8753 0.692401 29.3218L2.84678 31.4762C3.30758 31.937 3.91292 32.1674 4.51835 32.1674C5.1237 32.1674 5.72905 31.937 6.18984 31.4762L11.6551 26.0109C12.1016 25.5644 12.3475 24.9708 12.3475 24.3394C12.3475 24.0516 12.296 23.7721 12.1982 23.5104L13.5315 22.1771C15.3455 23.3413 17.5014 24.0169 19.8123 24.0169C21.3827 24.0169 22.8813 23.7041 24.2499 23.1387C24.2829 23.8785 24.5478 24.576 25.0096 25.1478H16.4347C16.0787 25.1478 15.7901 25.4364 15.7901 25.7923C15.7901 26.1483 16.0787 26.4368 16.4347 26.4368H26.1087C26.6873 26.4368 27.2318 26.6623 27.6416 27.0713C28.0507 27.4805 28.276 28.0246 28.276 28.6033C28.276 29.794 27.311 30.7632 26.1219 30.7703L15.1456 30.7707C14.5668 30.7707 14.0227 30.5454 13.6136 30.1362C13.2044 29.7271 12.9791 29.1827 12.9791 28.6033C12.9791 27.7768 13.4388 27.0339 14.1787 26.6646C14.4972 26.5056 14.6265 26.1185 14.4675 25.8C14.3086 25.4815 13.9215 25.3521 13.603 25.5112C12.423 26.1001 11.69 27.285 11.69 28.6033C11.69 29.5269 12.0494 30.395 12.702 31.0476C13.1756 31.5212 13.7629 31.8395 14.4021 31.979C13.8832 32.5836 13.5686 33.3685 13.5686 34.2259C13.5686 35.2028 13.9766 36.0855 14.6304 36.7146C13.4498 37.2648 12.6292 38.4621 12.6292 39.8481C12.6292 41.7536 14.1794 43.3038 16.0848 43.3038H27.0482C27.3235 43.3038 27.591 43.2705 27.8478 43.2094C28.1073 43.271 28.3732 43.3035 28.6415 43.3035H39.6048C41.5103 43.3035 43.0606 41.7532 43.0606 39.8477C43.0606 38.9245 42.7009 38.0569 42.0485 37.4058C41.9773 37.3344 41.903 37.2672 41.8268 37.2029C42.8453 36.6013 43.5303 35.4926 43.5303 34.2264ZM42.7109 28.6039C42.7109 29.7986 41.7389 30.7706 40.5442 30.7706H29.5809C29.3406 30.7706 29.1074 30.7318 28.8867 30.6572C29.3126 30.0825 29.565 29.372 29.565 28.6034C29.565 27.854 29.3281 27.141 28.8895 26.5498C29.1071 26.4765 29.3369 26.4381 29.5737 26.4375L40.5442 26.4372C41.1232 26.4372 41.667 26.6626 42.0764 27.0726C42.4855 27.481 42.7109 28.0248 42.7109 28.6039ZM27.9877 36.3927H17.0243C15.8296 36.3927 14.8577 35.4208 14.8577 34.2262C14.8577 33.0359 15.8225 32.0671 17.0111 32.0598L27.9878 32.0595C29.1825 32.0595 30.1544 33.0315 30.1544 34.2261C30.1544 35.4207 29.1824 36.3927 27.9877 36.3927ZM40.0741 15.1926C40.6536 15.1926 41.1976 15.4179 41.6066 15.8277C42.0157 16.236 42.2409 16.7801 42.2409 17.3595C42.2409 18.5539 41.2688 19.5256 40.074 19.5256H29.1108C29.0752 19.5256 29.0398 19.5243 29.0045 19.5225C29.9903 18.2608 30.7222 16.7918 31.1232 15.1928L40.0741 15.1926ZM10.7437 25.0994L5.2783 30.5647C4.85918 30.9837 4.17727 30.9837 3.75823 30.5647L1.60386 28.4103C1.40087 28.2073 1.28907 27.9374 1.28907 27.6503C1.28907 27.3632 1.40087 27.0933 1.60386 26.8903L7.06916 21.425C7.27868 21.2154 7.55394 21.1107 7.82919 21.1107C8.10445 21.1107 8.37963 21.2154 8.58923 21.425L10.7436 23.5793C10.9466 23.7823 11.0584 24.0522 11.0584 24.3394C11.0584 24.6265 10.9467 24.8964 10.7437 25.0994ZM11.4364 22.4492L9.71931 20.732L10.7572 19.6942C11.2687 20.3242 11.8443 20.8998 12.4743 21.4113L11.4364 22.4492ZM9.4407 12.3564C9.4407 6.63754 14.0934 1.98487 19.8122 1.98487C25.5311 1.98487 30.1838 6.63754 30.1838 12.3564C30.1838 18.0752 25.5311 22.7279 19.8122 22.7279C14.0934 22.7279 9.4407 18.0753 9.4407 12.3564ZM27.8305 20.8146H29.1108H38.6654C39.2441 20.8146 39.7883 21.04 40.1979 21.4497C40.607 21.8581 40.8322 22.4022 40.8322 22.9815C40.8322 24.1725 39.8665 25.1418 38.6769 25.1481H29.5809C29.5761 25.1481 29.5714 25.1484 29.5666 25.1484H27.7021C27.1233 25.1484 26.5792 24.923 26.1699 24.5137C25.7606 24.1044 25.5352 23.5603 25.5352 22.9815C25.5352 22.8112 25.5562 22.6433 25.595 22.4793C26.4062 22.014 27.1564 21.454 27.8305 20.8146ZM16.0849 42.0151C14.8902 42.0151 13.9183 41.0431 13.9183 39.8485C13.9183 38.6539 14.8903 37.6819 16.0849 37.6819H27.0483C28.243 37.6819 29.2149 38.6539 29.2149 39.8485C29.2149 41.0431 28.243 42.0151 27.0483 42.0151H16.0849ZM39.6049 42.0147H29.7379C30.2166 41.4217 30.504 40.6682 30.504 39.8484C30.504 39.0287 30.2166 38.2752 29.738 37.6822H39.6049C40.1839 37.6822 40.7277 37.9076 41.1371 38.3176C41.5463 38.726 41.7716 39.2696 41.7716 39.8481C41.7716 41.0428 40.7997 42.0147 39.6049 42.0147ZM40.0745 36.3931H30.6768C31.1557 35.7999 31.4434 35.0461 31.4434 34.2261C31.4434 33.4063 31.1559 32.6527 30.6772 32.0597H40.0745C40.6536 32.0597 41.1975 32.285 41.6067 32.6951C42.016 33.1035 42.2413 33.6474 42.2413 34.2264C42.2413 35.4211 41.2693 36.3931 40.0745 36.3931Z" fill="#75ABD6"/>
<path d="M19.8123 3.92407C15.1627 3.92407 11.3801 7.70678 11.3801 12.3563C11.3801 17.0057 15.1627 20.7884 19.8123 20.7884C24.4619 20.7884 28.2445 17.0058 28.2445 12.3563C28.2445 7.7067 24.4619 3.92407 19.8123 3.92407ZM19.8123 19.4994C15.8735 19.4994 12.6692 16.295 12.6692 12.3563C12.6692 8.41749 15.8735 5.21313 19.8123 5.21313C23.7511 5.21313 26.9554 8.41757 26.9554 12.3563C26.9554 16.2949 23.7511 19.4994 19.8123 19.4994Z" fill="#75ABD6"/>
<path d="M23.4448 7.42033C22.4278 6.84609 21.1332 7.20617 20.5588 8.22307L18.877 11.2011L18.3648 10.5404C17.6492 9.61741 16.3159 9.44854 15.3929 10.1642C14.4698 10.8798 14.3011 12.213 15.0167 13.136L17.4807 16.3143C17.8789 16.8281 18.5047 17.1348 19.1545 17.1348C19.2056 17.1348 19.257 17.133 19.3085 17.1292C20.0175 17.0776 20.6495 16.6773 20.999 16.0583L24.2475 10.3063C24.5256 9.81369 24.5953 9.24212 24.4437 8.69702C24.2921 8.15192 23.9374 7.69851 23.4448 7.42033ZM23.1251 9.67241L19.8767 15.4244C19.7399 15.6666 19.4925 15.8234 19.2151 15.8435C18.9386 15.8635 18.6676 15.7416 18.4994 15.5246L16.0354 12.3462C15.7553 11.9848 15.8214 11.463 16.1827 11.1829C16.3335 11.066 16.5122 11.0093 16.6898 11.0093C16.9375 11.0093 17.1828 11.1196 17.3459 11.3301L18.452 12.757C18.5843 12.9275 18.7933 13.0212 19.0082 13.0049C19.2234 12.9893 19.4165 12.867 19.5226 12.679L21.6812 8.85686C21.9061 8.4588 22.4128 8.31786 22.8109 8.54267C23.0038 8.65156 23.1426 8.82902 23.2019 9.04231C23.2613 9.25587 23.234 9.47956 23.1251 9.67241Z" fill="#75ABD6"/>
</g>
<defs>
<clipPath id="clip0_0_1318">
<rect width="44" height="44" fill="white"/>
</clipPath>
</defs>
</svg>
