<svg width="45" height="45" viewBox="0 0 45 45" fill="none" xmlns="http://www.w3.org/2000/svg">
<g clip-path="url(#clip0_0_322)">
<path d="M15.0055 22.9709C15.5595 22.8562 16.1384 22.6048 16.6845 22.2106C18.2547 21.0747 18.9516 19.2097 18.2395 18.0429C17.4652 16.7736 15.3471 16.8589 13.7195 18.3035C12.1631 19.6473 11.8311 21.0515 11.8311 22.5272C11.8311 23.5699 12.1646 25.4318 14.2019 27.0488C15.1639 26.3055 16.3106 25.6941 17.6124 25.2519L17.6297 25.2456C16.6294 24.8288 15.3256 24.0061 15.0055 22.9709ZM14.7543 19.3819C14.7543 18.9459 15.1017 18.5953 15.5301 18.5953C15.9582 18.5953 16.306 18.9475 16.306 19.3835C16.306 19.8195 15.9582 20.1701 15.5301 20.1701C15.1018 20.1701 14.7543 19.8179 14.7543 19.3819Z" fill="#75ABD6"/>
<path d="M33.1971 22.5288C33.1925 21.0515 32.862 19.6473 31.3042 18.3035C29.6779 16.8604 27.5584 16.772 26.784 18.0429C26.0733 19.2098 26.7685 21.0749 28.3387 22.2106C28.885 22.6048 29.4638 22.8561 30.0177 22.9709C29.8253 23.5931 29.2403 24.2262 28.3482 24.76C27.1214 25.4922 26.4587 25.5828 18.6097 28.1892C15.705 29.1761 13.9766 31.1373 13.9766 33.4354C13.9766 35.0724 14.8128 36.3355 15.9749 37.2604C16.7059 36.5077 17.6183 35.8546 18.6843 35.3316C17.457 34.711 17.0783 34.2407 17.0783 33.4354C17.0783 32.1062 19.7351 31.3463 20.9607 30.9419V34.306L24.0641 32.9218V30.9434C25.2917 31.35 27.9417 32.1089 27.9417 33.4354C27.9417 35.6422 21.6227 36.9436 18.9342 38.798C17.6293 39.7026 16.9277 40.8525 16.9277 42.2039C16.9277 42.9798 17.0178 43.9418 18.3801 44.8976C18.7664 45.2062 19.3031 44.7555 19.0522 44.3219C18.152 42.5204 19.1079 41.6205 20.9638 40.8415V43.4452C20.9638 44.3017 21.6589 44.9968 22.5154 44.9968C23.3719 44.9968 24.0671 44.3017 24.0671 43.4452V40.843C25.8499 41.5909 26.9719 42.6476 25.9741 44.3219C25.7268 44.7471 26.2534 45.21 26.6444 44.8976C27.9634 43.8983 28.0673 43.0417 28.0673 42.2241C28.0673 40.9658 27.3785 39.7446 26.0719 38.8089C28.7129 37.8546 31.0496 36.2486 31.0496 33.4385C31.0496 31.4974 29.8162 29.7967 27.6841 28.7199C28.6801 28.3614 29.1813 28.1209 29.847 27.7238C32.7627 25.9812 33.1971 23.7205 33.1971 22.5288ZM29.4949 20.1701C29.0665 20.1701 28.7191 19.8179 28.7191 19.3819C28.7191 18.9459 29.0665 18.5936 29.4949 18.5936C29.923 18.5936 30.2708 18.9459 30.2708 19.3819C30.2708 19.8179 29.9231 20.1701 29.4949 20.1701Z" fill="#75ABD6"/>
<path d="M44.2233 3.10635H33.5966C31.512 3.10635 29.9476 4.02785 28.6018 5.37374C27.1397 6.8358 26.3795 10.0859 24.0515 10.0859V5.7763C24.9753 5.23874 25.6032 4.24926 25.6032 3.10335C25.6032 1.38943 24.2139 0 22.4998 0C20.7858 0 19.3965 1.38943 19.3965 3.10335C19.3965 4.24916 20.0243 5.23865 20.9482 5.7763V24.2689C21.9058 23.9634 22.9569 23.6268 24.0515 23.2752V15.5028C24.7247 15.165 25.2679 14.6189 25.601 13.9431C26.1407 14.8655 27.1668 15.5197 28.3105 15.5197C29.4704 15.5197 30.4698 14.8757 31.0022 13.9332C32.82 15.751 36.1988 15.7861 38.0166 13.9683L35.3797 11.3314L36.5893 11.8325C38.9646 12.8163 41.6875 11.6884 42.6716 9.31315L38.9256 7.76147C42.5545 7.76138 44.2233 5.4842 44.2233 3.10635Z" fill="#75ABD6"/>
<path d="M16.3978 5.37371C15.0521 4.02782 13.4877 3.10632 11.403 3.10632H0.776367C0.776367 5.48407 2.4451 7.76135 6.07407 7.76135L2.32804 9.31302C3.312 11.6883 6.03509 12.8161 8.41031 11.8324L9.61994 11.3313L6.98306 13.9681C8.80085 15.786 12.1796 15.751 13.9974 13.933C14.5298 14.8757 15.5292 15.5197 16.6892 15.5197C16.7006 15.5197 16.7121 15.5196 16.7235 15.5195C18.2397 15.5023 19.3986 14.1327 19.3986 12.6165V9.49476C18.1756 8.49131 17.4751 6.45096 16.3978 5.37371Z" fill="#75ABD6"/>
</g>
<defs>
<clipPath id="clip0_0_322">
<rect width="45" height="45" fill="white"/>
</clipPath>
</defs>
</svg>
