<svg width="45" height="45" viewBox="0 0 45 45" fill="none" xmlns="http://www.w3.org/2000/svg">
<g clip-path="url(#clip0_0_351)">
<path d="M36.6381 32.7523C36.9291 32.4641 36.9281 31.9924 36.6381 31.7011L31.7399 26.8052L31.7873 26.5195C31.8925 25.9256 31.7315 25.3667 31.3434 24.9812L23.4983 17.1345C22.257 18.3748 24.293 20.7048 22.5835 21.1861L28.8611 27.4625C29.2462 27.8468 29.8066 28.01 30.4 27.9068L30.6849 27.8564L35.5821 32.7543C35.8733 33.0453 36.3468 33.0453 36.6381 32.7523Z" fill="#75ABD6"/>
<path d="M37.4216 33.536C38.1443 32.8148 38.1443 31.6387 37.4216 30.915L32.9196 26.4153C32.9872 25.5732 32.7069 24.773 32.1269 24.1928L21.6595 13.7264C23.1138 12.019 23.9477 10.6543 23.6362 10.342L19.357 6.06174C19.1293 5.83285 18.3309 6.22396 17.2546 7.01608L11.5577 1.31815C9.80082 -0.439219 6.95477 -0.439219 5.19994 1.31815C3.44637 3.06993 3.44637 5.91624 5.19994 7.67361L10.8989 13.37C10.1063 14.4476 9.71565 15.244 9.94454 15.4726L14.2248 19.7516C14.5363 20.0679 15.9026 19.2315 17.6097 17.778L28.0769 28.2459C28.6553 28.8216 29.4505 29.1029 30.2961 29.0335L34.8004 33.5385C35.5213 34.2599 36.6987 34.2599 37.4216 33.536ZM30.4948 28.4497C29.779 28.5762 29.0203 28.4038 28.4685 27.8497L18.0287 17.4135C18.5714 16.9319 19.1367 16.4052 19.7146 15.8293C20.2923 15.2536 20.8165 14.6876 21.295 14.1467L31.7361 24.5854C32.2922 25.1403 32.4628 25.8962 32.335 26.6132L37.0289 31.3097C37.5351 31.8131 37.5367 32.6372 37.0302 33.1461C36.5225 33.6511 35.6974 33.6511 35.191 33.1461L30.4948 28.4497Z" fill="#75ABD6"/>
<path d="M37.9653 34.0785C37.9653 34.0785 34.8125 40.111 34.8125 41.8499C34.8125 43.5882 36.2267 45.0001 37.9653 45.0001C39.7036 45.0001 41.1157 43.5885 41.1157 41.8499C41.1157 40.111 37.9653 34.0785 37.9653 34.0785Z" fill="#75ABD6"/>
</g>
<defs>
<clipPath id="clip0_0_351">
<rect width="45" height="45" fill="white"/>
</clipPath>
</defs>
</svg>
