<svg width="44" height="44" viewBox="0 0 44 44" fill="none" xmlns="http://www.w3.org/2000/svg">
<path d="M23.4606 38.475V23.4215C30.5454 22.6101 35.5862 16.6779 35.5862 9.91091C35.5862 7.3528 34.8759 4.17105 33.6447 1.08658C33.3832 0.4306 32.7473 0 32.0414 0H11.947C11.2406 0 10.6048 0.4306 10.3436 1.08667C9.23201 3.87167 8.36841 7.15452 8.4154 10.1838C8.4154 10.1867 8.4162 10.1895 8.4162 10.1923C8.55302 16.8662 13.5523 22.6423 20.5269 23.4215V38.475C15.9092 38.853 12.3695 40.9055 12.3695 41.9374C12.3695 43.0776 16.6783 44 21.9944 44C27.3104 44 31.6196 43.0776 31.6196 41.9374C31.6196 40.9055 28.0787 38.8525 23.4606 38.475ZM12.7769 2.93353H31.2111C32.1315 5.44367 32.6527 7.95024 32.6527 9.911C32.6527 10.3871 32.6104 10.8536 32.5496 11.3139C31.6324 11.0854 30.6818 11.0551 29.662 11.4181C26.9989 12.3663 25.2724 12.9736 22.563 11.9111C19.869 10.8538 18.1666 6.05132 14.9361 6.41671C13.6526 6.56116 12.5515 6.98332 11.5574 7.56975C11.7881 6.11457 12.1905 4.53325 12.7769 2.93353Z" fill="#75ABD6"/>
</svg>
