<svg width="44" height="44" viewBox="0 0 44 44" fill="none" xmlns="http://www.w3.org/2000/svg">
<path d="M22 0C9.87744 0 0 9.98721 0 22C0 34.0836 9.91638 44 22 44C34.0269 44 44 34.1353 44 22C44 9.91638 34.0836 0 22 0ZM22 41.4219C11.3377 41.4219 2.57812 32.6623 2.57812 22C2.57812 17.1321 4.48587 12.6912 7.46548 9.28864L34.7114 36.5345C31.3088 39.5141 26.8679 41.4219 22 41.4219ZM36.5345 34.7114L9.28864 7.46548C12.6912 4.48587 17.1321 2.57812 22 2.57812C32.6623 2.57812 41.4219 11.3377 41.4219 22C41.4219 26.8679 39.5141 31.3088 36.5345 34.7114Z" fill="#75ABD6"/>
<path d="M24.5781 6.53125C24.5781 5.81891 24.0014 5.24219 23.2891 5.24219H20.7109C19.9986 5.24219 19.4219 5.81891 19.4219 6.53125V10.3984H24.5781V6.53125Z" fill="#75ABD6"/>
<path d="M18.1328 38.7578H25.8672C26.5795 38.7578 27.1562 38.1811 27.1562 37.4688V33.6016H16.8438V37.4688C16.8438 38.1811 17.4205 38.7578 18.1328 38.7578Z" fill="#75ABD6"/>
<path d="M24.6836 12.9766H19.3166C19.2756 13.2085 19.1944 13.4267 19.1128 13.6443L27.1563 21.6878V18.6666C27.1563 17.1472 26.5645 15.7182 25.4896 14.6433C25.0334 14.1871 24.7941 13.5986 24.6836 12.9766Z" fill="#75ABD6"/>
<path d="M16.8438 22.3123V31.0235H25.555L16.8438 22.3123Z" fill="#75ABD6"/>
</svg>
