<svg width="45" height="45" viewBox="0 0 45 45" fill="none" xmlns="http://www.w3.org/2000/svg">
<g clip-path="url(#clip0_0_341)">
<path d="M42.2248 0.0884723L33.3965 10.1001C32.8694 9.76709 32.1651 9.8521 31.7389 10.3359L29.5031 12.8724C28.5647 12.6597 27.5448 12.9406 26.8642 13.7134L9.83442 33.0267L8.28138 31.6575C7.95945 31.3748 7.46946 31.4044 7.1855 31.7263C6.90231 32.0475 6.93362 32.5395 7.25449 32.8231L9.77815 35.0477L4.72795 40.7747L3.6112 39.7908C3.28973 39.5065 2.79974 39.5362 2.51578 39.859C2.23259 40.1802 2.26269 40.6705 2.58477 40.9549L6.95147 44.8066C7.27294 45.0894 7.7643 45.0581 8.04735 44.7369C8.3313 44.4157 8.29999 43.9245 7.97806 43.641L6.86176 42.6563L11.9112 36.9299L14.4347 39.1546C14.7562 39.4381 15.2471 39.4068 15.5303 39.0857C15.8142 38.763 15.7832 38.2734 15.4613 37.9907L13.9092 36.6213L30.9383 17.3083C31.6199 16.5355 31.7702 15.4882 31.4436 14.5842L33.6809 12.0469C34.0804 11.5918 34.1007 10.935 33.7703 10.4571L42.6134 0.431122C42.709 0.322654 42.6974 0.158818 42.5899 0.06457C42.4833 -0.0293751 42.3204 -0.0202983 42.2248 0.0884723ZM30.1635 16.6243L21.563 26.3778L21.0195 25.8975L29.2783 16.531C29.4193 16.3696 29.4051 16.1252 29.2437 15.983C29.083 15.8404 28.838 15.8572 28.6953 16.0183L20.4369 25.3853L19.0386 24.1523L27.6395 14.3979C28.2537 13.7019 29.3166 13.6353 30.0137 14.2498C30.7119 14.8633 30.7786 15.9263 30.1635 16.6243Z" fill="#75ABD6"/>
</g>
<defs>
<clipPath id="clip0_0_341">
<rect width="45" height="45" fill="white"/>
</clipPath>
</defs>
</svg>
