<svg width="44" height="44" viewBox="0 0 44 44" fill="none" xmlns="http://www.w3.org/2000/svg">
<g clip-path="url(#clip0_0_1355)">
<path d="M43.9152 24.0324C43.5201 20.0587 41.7449 16.3126 38.9163 13.4839C36.499 11.0667 33.5403 9.51336 30.4271 8.82267V6.63914C31.6986 6.32279 32.6438 5.17182 32.6438 3.80376C32.6438 2.19257 31.333 0.881836 29.7219 0.881836H23.5343C21.9231 0.881836 20.6123 2.19257 20.6123 3.80376C20.6123 5.17173 21.5575 6.32271 22.829 6.63914V8.82877C19.7253 9.52238 16.7764 11.0736 14.366 13.484C13.8385 14.0115 13.3521 14.5648 12.9068 15.1399C12.8852 15.1383 12.8637 15.1367 12.8417 15.1367H6.71758C6.24303 15.1367 5.85819 15.5214 5.85819 15.9961C5.85819 16.4707 6.24303 16.8555 6.71758 16.8555H11.7374C11.1073 17.9104 10.5993 19.0182 10.2125 20.1586H0.859388C0.384834 20.1586 0 20.5434 0 21.018C0 21.4926 0.384834 21.8774 0.859388 21.8774H9.7269C9.47923 22.9646 9.33708 24.0711 9.30039 25.1806H5.50009C5.02553 25.1806 4.6407 25.5654 4.6407 26.04C4.6407 26.5146 5.02553 26.8994 5.50009 26.8994H9.3278C9.40033 28.0118 9.57917 29.1183 9.8644 30.2026H4.29694C3.82239 30.2026 3.43755 30.5874 3.43755 31.062C3.43755 31.5366 3.82239 31.9214 4.29694 31.9214H10.4129C11.2559 34.1516 12.5735 36.2419 14.366 38.0344C17.1973 40.8657 20.9473 42.6414 24.9251 43.0344C25.4928 43.0904 26.061 43.1182 26.6283 43.1182C29.9818 43.1182 33.2927 42.1477 36.102 40.3182C36.4998 40.0592 36.6123 39.5268 36.3532 39.1291C36.0942 38.7314 35.5618 38.6189 35.1641 38.8779C29.0146 42.8824 20.7788 42.0165 15.5813 36.819C9.48292 30.7207 9.48292 20.7979 15.5813 14.6994C21.6796 8.60112 31.6024 8.60112 37.7009 14.6994C42.8915 19.8901 43.762 28.1189 39.7708 34.2654C39.5123 34.6634 39.6255 35.1957 40.0234 35.4542C40.4217 35.7127 40.9538 35.5995 41.2122 35.2014C43.3447 31.9173 44.3047 27.9508 43.9152 24.0324ZM22.3311 3.80384C22.3311 3.14039 22.8708 2.6007 23.5343 2.6007H29.7219C30.3853 2.6007 30.925 3.14039 30.925 3.80384C30.925 4.46729 30.3853 5.00699 29.7219 5.00699H29.5677H23.6884H23.5343C22.8708 5.00699 22.3311 4.4672 22.3311 3.80384ZM24.5477 8.53331V6.72576H28.7083V8.53022C27.3267 8.3659 25.929 8.36694 24.5477 8.53331Z" fill="#75ABD6"/>
<path d="M38.3088 36.5669C38.0819 36.5669 37.861 36.6588 37.7013 36.8187C37.5406 36.9785 37.4494 37.2003 37.4494 37.4263C37.4494 37.6523 37.5406 37.874 37.7013 38.0338C37.861 38.1946 38.082 38.2856 38.3088 38.2856C38.5348 38.2856 38.7557 38.1946 38.9164 38.0338C39.0762 37.874 39.1682 37.6523 39.1682 37.4263C39.1682 37.2003 39.0763 36.9785 38.9164 36.8187C38.7557 36.6588 38.5347 36.5669 38.3088 36.5669Z" fill="#75ABD6"/>
<path d="M26.6411 12.4274C19.29 12.4274 13.3094 18.4079 13.3094 25.759C13.3094 33.1101 19.29 39.0906 26.6411 39.0906C33.9921 39.0906 39.9727 33.1101 39.9727 25.759C39.9727 18.4079 33.9921 12.4274 26.6411 12.4274ZM26.6411 37.3718C20.2377 37.3718 15.0282 32.1623 15.0282 25.759C15.0282 19.3557 20.2377 14.1461 26.6411 14.1461C33.0444 14.1461 38.2539 19.3557 38.2539 25.759C38.2539 32.1623 33.0444 37.3718 26.6411 37.3718Z" fill="#75ABD6"/>
<path d="M32.0774 19.1075L27.8208 23.364C27.4649 23.188 27.0645 23.0886 26.6412 23.0886C26.2179 23.0886 25.8176 23.188 25.4617 23.364L23.5566 21.459C23.221 21.1234 22.677 21.1234 22.3412 21.459C22.0056 21.7946 22.0056 22.3387 22.3412 22.6743L24.2462 24.5793C24.0701 24.9353 23.9708 25.3357 23.9708 25.7589C23.9708 27.2314 25.1687 28.4294 26.6412 28.4294C28.1138 28.4294 29.3117 27.2314 29.3117 25.7589C29.3117 25.3357 29.2123 24.9353 29.0363 24.5793L33.1679 20.4477L33.2927 20.3229C33.6283 19.9873 33.6283 19.4431 33.2927 19.1075C32.9571 18.7719 32.4132 18.7719 32.0774 19.1075ZM26.6412 26.7107C26.1165 26.7107 25.6896 26.2838 25.6896 25.759C25.6896 25.2343 26.1165 24.8073 26.6412 24.8073C27.166 24.8073 27.5929 25.2343 27.5929 25.759C27.5929 26.2838 27.166 26.7107 26.6412 26.7107Z" fill="#75ABD6"/>
<path d="M35.8295 24.9102H35.0333C34.5588 24.9102 34.1739 25.2949 34.1739 25.7695C34.1739 26.2442 34.5588 26.6289 35.0333 26.6289H35.8295C36.3041 26.6289 36.6889 26.2442 36.6889 25.7695C36.6889 25.2949 36.3041 24.9102 35.8295 24.9102Z" fill="#75ABD6"/>
<path d="M18.2489 24.8892H17.4528C16.9782 24.8892 16.5934 25.2739 16.5934 25.7485C16.5934 26.2232 16.9782 26.6079 17.4528 26.6079H18.2489C18.7234 26.6079 19.1083 26.2232 19.1083 25.7485C19.1083 25.2739 18.7234 24.8892 18.2489 24.8892Z" fill="#75ABD6"/>
<path d="M26.6515 18.2261C27.126 18.2261 27.5109 17.8413 27.5109 17.3667V16.5706C27.5109 16.0959 27.126 15.7112 26.6515 15.7112C26.1769 15.7112 25.7921 16.0959 25.7921 16.5706V17.3667C25.7921 17.8413 26.1769 18.2261 26.6515 18.2261Z" fill="#75ABD6"/>
<path d="M26.6309 33.292C26.1564 33.292 25.7715 33.6767 25.7715 34.1514V34.9475C25.7715 35.4221 26.1564 35.8069 26.6309 35.8069C27.1055 35.8069 27.4903 35.4221 27.4903 34.9475V34.1514C27.4903 33.6767 27.1055 33.292 26.6309 33.292Z" fill="#75ABD6"/>
<path d="M0.859375 30.2023C0.633359 30.2023 0.411641 30.2942 0.251797 30.4541C0.0919531 30.6139 0 30.8356 0 31.0616C0 31.2885 0.0918672 31.5094 0.251797 31.6692C0.411727 31.8291 0.633359 31.921 0.859375 31.921C1.08539 31.921 1.30711 31.8291 1.46687 31.6692C1.62671 31.5094 1.71875 31.2877 1.71875 31.0616C1.71875 30.8356 1.6268 30.6139 1.46687 30.4541C1.30711 30.2942 1.08539 30.2023 0.859375 30.2023Z" fill="#75ABD6"/>
</g>
<defs>
<clipPath id="clip0_0_1355">
<rect width="44" height="44" fill="white"/>
</clipPath>
</defs>
</svg>
