<svg width="42" height="42" viewBox="0 0 42 42" fill="none" xmlns="http://www.w3.org/2000/svg">
<g clip-path="url(#clip0_0_1328)">
<path d="M21.0002 0C13.2692 0 6.97971 6.2895 6.97971 14.0205C6.97971 21.7512 13.2692 28.0411 21.0002 28.0411C28.7309 28.0411 35.0208 21.7512 35.0208 14.0205C35.0208 6.2895 28.7309 0 21.0002 0ZM21.0002 25.2829C14.7903 25.2829 9.73784 20.2305 9.73784 14.0205C9.73784 7.81061 14.7903 2.75814 21.0002 2.75814C27.2107 2.75814 32.2626 7.81061 32.2626 14.0205C32.2626 20.2305 27.2107 25.2829 21.0002 25.2829Z" fill="#75ABD6"/>
<path d="M30.7896 40.073L30.1 23.708L27.3447 23.8238L27.946 38.088L22.2491 33.1794C21.537 32.5142 20.4628 32.5133 19.7502 33.1794L14.0537 38.0875L14.655 23.8238L11.8992 23.708L11.2096 40.073C11.2091 40.0923 11.2087 40.1116 11.2087 40.1309C11.2087 40.8613 11.633 41.5284 12.2899 41.8299C12.95 42.1343 13.7085 42.0253 14.2693 41.5431L21.0001 35.744L27.7327 41.5453C28.0821 41.8445 28.5091 41.9995 28.9412 41.9995C29.2014 41.9995 29.4629 41.9439 29.7102 41.8299C30.3666 41.5283 30.791 40.8613 30.791 40.1308C30.791 40.1116 30.7906 40.0923 30.7896 40.073Z" fill="#75ABD6"/>
<path d="M27.1238 9.8273C26.585 9.28852 25.7125 9.28852 25.1738 9.8273L19.1675 15.8336L16.373 13.0052C15.8375 12.4632 14.9645 12.4577 14.4225 12.9932C13.8805 13.5287 13.875 14.4017 14.4105 14.9437L18.18 18.7591C18.4383 19.0207 18.7895 19.1682 19.1568 19.1692C19.1582 19.1692 19.1596 19.1692 19.1609 19.1692C19.5263 19.1692 19.8775 19.0239 20.1363 18.7647L27.1236 11.7774C27.6625 11.239 27.6625 10.3656 27.1238 9.8273Z" fill="#75ABD6"/>
</g>
<defs>
<clipPath id="clip0_0_1328">
<rect width="42" height="42" fill="white"/>
</clipPath>
</defs>
</svg>
