<svg width="30" height="30" viewBox="0 0 30 30" fill="none" xmlns="http://www.w3.org/2000/svg">
<g clip-path="url(#clip0_0_511)">
<path d="M29.9637 16.7236C29.742 15.1877 28.5355 13.9812 26.9996 13.7595V12.8505C26.9996 10.3425 25.0932 8.30056 22.7497 8.30056C20.4737 8.30056 18.5682 10.2805 18.4997 12.7145H18.5287L18.4997 12.7195V22.5729C18.4997 25.7228 16.1448 28.2808 13.2498 28.2808C10.3549 28.2808 7.99989 25.7193 7.99989 22.5729V21.7194C8.72488 21.7194 9.49987 21.1939 9.49987 19.7194V18.4619C12.7088 17.6414 14.9998 14.886 14.9998 11.762V10.7195H13.9998L13.9788 4.21212C13.9716 3.00758 13.1072 1.97909 11.9218 1.76466C11.6662 0.981356 10.8239 0.553613 10.0405 0.809359C9.25719 1.06504 8.82944 1.90734 9.08519 2.69071C9.34087 3.47401 10.1832 3.90175 10.9665 3.64601C11.386 3.50907 11.7233 3.19351 11.8878 2.78414C12.5284 2.96639 12.9721 3.54913 12.9773 4.21512L12.9998 10.7195H11.9998V11.7765C11.96 13.5157 10.794 15.027 9.12188 15.507C8.2272 15.7908 7.26659 15.7908 6.37191 15.507C4.70175 15.0254 3.53839 13.5143 3.49995 11.7765V10.7195H1.99997V4.21962C2.00285 3.54382 2.45734 2.95333 3.10996 2.77764C3.41427 3.55232 4.28894 3.93356 5.06362 3.62926C5.8383 3.32495 6.21954 2.45021 5.91523 1.6756C5.61092 0.900982 4.73619 0.519676 3.96157 0.823984C3.54183 0.988919 3.21796 1.3331 3.07896 1.76216C1.88066 1.9669 1.0033 3.00395 0.999986 4.21962V10.7195H0V11.7595C0 14.887 2.29247 17.6434 5.49993 18.4619V19.7194C5.49993 21.1939 6.27491 21.7194 6.9999 21.7194V22.5729C6.9999 26.2728 9.80337 29.2808 13.2498 29.2808C16.6963 29.2808 19.4997 26.2693 19.4997 22.5729V12.7435C19.5497 10.846 21.0087 9.30205 22.7497 9.30205C24.5417 9.30205 25.9996 10.894 25.9996 12.852V13.7595C24.0865 14.0356 22.7594 15.8104 23.0356 17.7235C23.3117 19.6367 25.0865 20.9638 26.9996 20.6876C28.9128 20.4115 30.2398 18.6367 29.9637 16.7236ZM10.4999 2.71964C10.2237 2.71964 9.99986 2.49577 9.99986 2.21965C9.99986 1.94353 10.2237 1.71966 10.4999 1.71966C10.776 1.71966 10.9999 1.94353 10.9999 2.21965C10.9999 2.49577 10.776 2.71964 10.4999 2.71964ZM4.49994 1.71966C4.77606 1.71966 4.99993 1.94353 4.99993 2.21965C4.99993 2.49577 4.77606 2.71964 4.49994 2.71964C4.22382 2.71964 3.99995 2.49577 3.99995 2.21965C3.99995 1.94353 4.22382 1.71966 4.49994 1.71966ZM0.999986 11.7595V11.7195H2.49997V11.7765C2.53747 13.9497 3.98326 15.8462 6.06892 16.4579C7.16184 16.804 8.33495 16.804 9.42787 16.4579C11.5145 15.847 12.9616 13.9504 12.9998 11.7765V11.7195H13.9998V11.7595C13.9998 14.541 11.8558 16.9884 8.89988 17.5804C8.20576 17.7194 7.49477 17.7543 6.79041 17.6839C6.55854 17.6614 6.32804 17.6266 6.09992 17.5794C3.14396 16.9884 0.999986 14.541 0.999986 11.7595ZM6.9999 20.7194C6.54991 20.7194 6.49991 20.0194 6.49991 19.7194V18.6584C6.53991 18.6634 6.58091 18.6654 6.62141 18.6694C6.67141 18.6749 6.72141 18.6789 6.77141 18.6834C7.00791 18.7044 7.2464 18.7184 7.4869 18.7189H7.5119C7.75189 18.7189 7.98989 18.7044 8.22489 18.6834C8.27489 18.6789 8.32789 18.6749 8.37939 18.6694C8.41889 18.6649 8.45989 18.6634 8.49938 18.6584V19.7194C8.49938 20.0194 8.44938 20.7194 7.99939 20.7194H6.9999ZM26.4996 19.7194C25.119 19.7194 23.9997 18.6001 23.9997 17.2194C23.9997 15.8388 25.119 14.7195 26.4996 14.7195C27.8803 14.7195 28.9996 15.8388 28.9996 17.2194C28.998 18.5995 27.8796 19.7178 26.4996 19.7194Z" fill="#75ABD6"/>
<path d="M26.4995 15.7195C25.6711 15.7195 24.9995 16.391 24.9995 17.2195C24.9995 18.0479 25.6711 18.7195 26.4995 18.7195C27.3279 18.7195 27.9995 18.0479 27.9995 17.2195C27.9995 16.391 27.3279 15.7195 26.4995 15.7195ZM26.4995 17.7195C26.2234 17.7195 25.9995 17.4956 25.9995 17.2195C25.9995 16.9433 26.2234 16.7195 26.4995 16.7195C26.7756 16.7195 26.9995 16.9433 26.9995 17.2195C26.9995 17.4956 26.7756 17.7195 26.4995 17.7195Z" fill="#75ABD6"/>
</g>
<defs>
<clipPath id="clip0_0_511">
<rect width="30" height="30" fill="white"/>
</clipPath>
</defs>
</svg>
