<svg width="119" height="121" viewBox="0 0 119 121" fill="none" xmlns="http://www.w3.org/2000/svg">
<path fill-rule="evenodd" clip-rule="evenodd" d="M59.5 101C81.0391 101 98.5 83.5391 98.5 62C98.5 40.4609 81.0391 23 59.5 23C37.9609 23 20.5 40.4609 20.5 62C20.5 83.5391 37.9609 101 59.5 101ZM59.5 121C92.0848 121 118.5 94.5848 118.5 62C118.5 29.4152 92.0848 3 59.5 3C26.9152 3 0.5 29.4152 0.5 62C0.5 94.5848 26.9152 121 59.5 121Z" fill="white" fill-opacity="0.2"/>
<path d="M30 14.5C30 22.5081 23.5081 29 15.5 29C7.49187 29 1 22.5081 1 14.5C1 6.49187 7.49187 0 15.5 0C23.5081 0 30 6.49187 30 14.5Z" fill="white" fill-opacity="0.5"/>
<path d="M108 109C108 112.866 104.866 116 101 116C97.134 116 94 112.866 94 109C94 105.134 97.134 102 101 102C104.866 102 108 105.134 108 109Z" fill="white" fill-opacity="0.87"/>
</svg>
