<svg width="35" height="34" viewBox="0 0 35 34" fill="none" xmlns="http://www.w3.org/2000/svg">
<path d="M22.1497 21.6497C21.1941 23.8183 19.54 25.6194 17.5184 26.7956C15.8643 27.7881 13.9162 28.3394 11.8211 28.3394C10.167 28.3394 8.58649 27.9719 7.18973 27.347C3.33027 25.6194 0.647027 21.7967 0.5 17.3492C0.5 17.2389 0.5 17.1286 0.5 17.0183C0.5 16.9081 0.5 16.7978 0.5 16.6875C0.61027 12.24 3.33027 8.41726 7.18973 6.6897C6.56487 8.08645 6.1973 9.66699 6.1973 11.321C6.1973 13.3794 6.74865 15.3275 7.74108 17.0183C8.9173 19.04 10.7184 20.694 12.887 21.6497C14.2838 22.2746 15.8643 22.6421 17.5184 22.6421C19.1724 22.6421 20.753 22.2746 22.1497 21.6497Z" fill="url(#paint0_linear_0_572)"/>
<path d="M34.4998 17.0183C34.4998 17.1286 34.4998 17.2389 34.4998 17.3492C34.3896 21.7967 31.6696 25.6194 27.8101 27.347C28.435 25.9502 28.8025 24.3697 28.8025 22.7156C28.8025 20.6573 28.2512 18.7092 27.2587 17.0183C26.0825 14.9967 24.2815 13.3427 22.1128 12.387C20.716 11.7621 19.1355 11.3946 17.4814 11.3946C15.8274 11.3946 14.2469 11.7621 12.8501 12.387C13.8058 10.2183 15.4598 8.41727 17.4814 7.24105C19.1355 6.24862 21.0836 5.69727 23.1787 5.69727C24.8328 5.69727 26.4133 6.06483 27.8101 6.6897C31.6696 8.41727 34.3528 12.24 34.4998 16.6875C34.4998 16.7978 34.4998 16.9081 34.4998 17.0183Z" fill="url(#paint1_linear_0_572)"/>
<path d="M27.847 6.68973C26.4502 6.06487 24.8697 5.6973 23.2156 5.6973C21.1573 5.6973 19.2092 6.24865 17.5183 7.24108C15.4967 8.4173 13.8427 10.2184 12.887 12.387C12.2621 13.7838 11.8946 15.3643 11.8946 17.0184C11.8946 18.6724 12.2621 20.253 12.887 21.6497C10.7183 20.6941 8.91727 19.04 7.74105 17.0184C6.74862 15.3643 6.19727 13.4162 6.19727 11.3211C6.19727 9.66703 6.56483 8.08649 7.1897 6.68973C8.91727 2.83027 12.74 0.147027 17.1875 0C17.2978 0 17.4081 0 17.5183 0C17.6286 0 17.7389 0 17.8492 0C22.2967 0.147027 26.1194 2.83027 27.847 6.68973Z" fill="url(#paint2_linear_0_572)"/>
<path d="M28.8397 22.679C28.8397 24.333 28.4721 25.9136 27.8472 27.3103C26.1197 31.1698 22.297 33.853 17.8494 34.0001C17.7391 34.0001 17.6289 34.0001 17.5186 34.0001C17.4083 34.0001 17.2981 34.0001 17.1878 34.0001C12.7402 33.8898 8.91751 31.1698 7.18994 27.3103C8.5867 27.9352 10.1672 28.3028 11.8213 28.3028C13.8797 28.3028 15.8278 27.7514 17.5186 26.759C19.5402 25.5828 21.1943 23.7817 22.1499 21.613C22.7748 20.2163 23.1424 18.6357 23.1424 16.9817C23.1424 15.3276 22.7748 13.7471 22.1499 12.3503C24.3186 13.306 26.1197 14.9601 27.2959 16.9817C28.2516 18.6725 28.8397 20.6206 28.8397 22.679Z" fill="url(#paint3_linear_0_572)"/>
<defs>
<linearGradient id="paint0_linear_0_572" x1="4.06416" y1="13.0062" x2="15.3695" y2="26.1101" gradientUnits="userSpaceOnUse">
<stop stop-color="#92A0AA"/>
<stop offset="1" stop-color="#C0D2DE"/>
</linearGradient>
<linearGradient id="paint1_linear_0_572" x1="31.244" y1="19.7853" x2="22.508" y2="11.5632" gradientUnits="userSpaceOnUse">
<stop stop-color="#92A0AA"/>
<stop offset="1" stop-color="#C0D2DE"/>
</linearGradient>
<linearGradient id="paint2_linear_0_572" x1="6.19756" y1="10.8194" x2="27.8395" y2="10.8194" gradientUnits="userSpaceOnUse">
<stop stop-color="#C0D2DE"/>
<stop offset="1" stop-color="#85ABC3"/>
</linearGradient>
<linearGradient id="paint3_linear_0_572" x1="25.8538" y1="13.6394" x2="14.8054" y2="31.8821" gradientUnits="userSpaceOnUse">
<stop stop-color="#C0D2DE"/>
<stop offset="1" stop-color="#85ABC4"/>
</linearGradient>
</defs>
</svg>
