<svg width="49" height="48" viewBox="0 0 49 48" fill="none" xmlns="http://www.w3.org/2000/svg">
<circle cx="24.2114" cy="23.8826" r="19" transform="rotate(-165 24.2114 23.8826)" stroke="url(#paint0_linear_0_544)"/>
<circle cx="24" cy="23.7651" r="14.5" stroke="url(#paint1_linear_0_544)"/>
<g filter="url(#filter0_d_0_544)">
<circle cx="24.5" cy="25.2651" r="10.5" fill="white"/>
</g>
<g clip-path="url(#clip0_0_544)">
<path d="M23.141 26.2102C22.1865 25.1602 21.971 24.1103 21.9223 23.6896C21.9088 23.5733 21.9451 23.4567 22.0208 23.374L22.7932 22.5248C22.9068 22.3999 22.927 22.2052 22.8418 22.0554L21.612 19.9548C21.5178 19.7889 21.3243 19.729 21.1653 19.8165L19.191 20.8393C19.0623 20.909 18.9867 21.0593 19.0013 21.2162C19.1048 22.2972 19.5332 24.9546 21.9073 27.5664C24.2815 30.1781 26.697 30.6492 27.6803 30.763C27.8229 30.7791 27.9595 30.6959 28.0229 30.5544L28.9527 28.3827C29.0319 28.2081 28.9779 27.9958 28.8277 27.892L26.918 26.5396C26.7819 26.4458 26.6049 26.4678 26.4913 26.5927L25.7192 27.4423C25.6441 27.5256 25.5381 27.5656 25.4323 27.5506C25.0499 27.4972 24.0954 27.2601 23.141 26.2102Z" fill="#BFD2E1"/>
</g>
<defs>
<filter id="filter0_d_0_544" x="10" y="12.7651" width="29" height="29" filterUnits="userSpaceOnUse" color-interpolation-filters="sRGB">
<feFlood flood-opacity="0" result="BackgroundImageFix"/>
<feColorMatrix in="SourceAlpha" type="matrix" values="0 0 0 0 0 0 0 0 0 0 0 0 0 0 0 0 0 0 127 0" result="hardAlpha"/>
<feOffset dy="2"/>
<feGaussianBlur stdDeviation="2"/>
<feComposite in2="hardAlpha" operator="out"/>
<feColorMatrix type="matrix" values="0 0 0 0 0.74902 0 0 0 0 0.823529 0 0 0 0 0.882353 0 0 0 1 0"/>
<feBlend mode="normal" in2="BackgroundImageFix" result="effect1_dropShadow_0_544"/>
<feBlend mode="normal" in="SourceGraphic" in2="effect1_dropShadow_0_544" result="shape"/>
</filter>
<linearGradient id="paint0_linear_0_544" x1="24.2114" y1="4.38261" x2="24.2114" y2="43.3826" gradientUnits="userSpaceOnUse">
<stop stop-color="#BFD2E1"/>
<stop offset="1" stop-color="white" stop-opacity="0"/>
</linearGradient>
<linearGradient id="paint1_linear_0_544" x1="24" y1="8.76514" x2="24" y2="38.7651" gradientUnits="userSpaceOnUse">
<stop stop-color="#BFD2E1"/>
<stop offset="1" stop-color="white" stop-opacity="0"/>
</linearGradient>
<clipPath id="clip0_0_544">
<rect width="10" height="11" fill="white" transform="translate(19 19.7651)"/>
</clipPath>
</defs>
</svg>
