<svg width="45" height="45" viewBox="0 0 45 45" fill="none" xmlns="http://www.w3.org/2000/svg">
<g clip-path="url(#clip0_0_363)">
<path d="M16.466 43.7778C16.5161 44.4668 17.0898 45 17.7805 45H33.2782C33.9689 45 34.5426 44.4668 34.5931 43.7778L36.0512 23.8335H15.0068L16.466 43.7778Z" fill="#75ABD6"/>
<path d="M36.244 21.1967L36.8781 12.523C36.9049 12.1577 36.7782 11.7976 36.529 11.5291C36.2794 11.261 35.9299 11.1085 35.5632 11.1085H32.2062L30.3042 21.1967H36.244Z" fill="#75ABD6"/>
<path d="M29.523 11.1085H15.4937C15.1274 11.1085 14.7776 11.261 14.528 11.5291C14.2787 11.7976 14.152 12.1577 14.1788 12.523L14.8136 21.1967H27.6206L29.523 11.1085Z" fill="#75ABD6"/>
<path d="M34.0057 1.56275C34.1406 0.847267 33.6699 0.157874 32.9545 0.0229484C32.2386 -0.111978 31.5496 0.358718 31.4147 1.0742L29.5229 11.1085H32.206L34.0057 1.56275Z" fill="#75ABD6"/>
<path d="M12.5969 9.73418C13.3426 8.93183 14.3986 8.47178 15.4938 8.47178H21.4628C20.1857 6.45373 17.9348 5.10962 15.375 5.10962C11.4042 5.10962 8.17383 8.34029 8.17383 12.3108C8.17383 15.0564 9.71878 17.4469 11.9844 18.6616L11.5494 12.7153C11.4694 11.6231 11.8512 10.5365 12.5969 9.73418Z" fill="#75ABD6"/>
</g>
<defs>
<clipPath id="clip0_0_363">
<rect width="45" height="45" fill="white"/>
</clipPath>
</defs>
</svg>
