<svg width="30" height="30" viewBox="0 0 30 30" fill="none" xmlns="http://www.w3.org/2000/svg">
<path d="M22.947 12.7581V8.00721C22.9597 5.85754 22.1011 3.79054 20.5683 2.28323C19.0865 0.807717 17.1467 0 15.0924 0C15.0606 0 15.0225 0 14.9907 0C10.6086 0.00635997 7.04705 3.59339 7.04705 8.00721V12.7581C5.39345 12.9553 4.18506 14.3417 4.18506 16.0208V26.6928C4.18506 28.5054 5.63513 30 7.44772 30H22.5527C24.3653 30 25.8153 28.5054 25.8153 26.6928V16.0208C25.809 14.3481 24.6006 12.9553 22.947 12.7581ZM8.31268 8.00721H8.31904C8.31904 4.29298 11.3146 1.25292 14.997 1.25292H15.0034C16.7524 1.24655 18.4314 1.93979 19.6716 3.17363C20.9627 4.45198 21.6813 6.19461 21.6686 8.00721V12.7645H20.2694V8.00721C20.2822 6.56349 19.7098 5.17702 18.6858 4.15942C17.7191 3.19271 16.4089 2.64575 15.0415 2.64575H15.0034C12.0778 2.64575 9.71188 5.04982 9.71188 8.00085V12.7645H8.31268V8.00721ZM19.0038 8.00721V12.7645H10.9902V8.00721C10.9902 5.75578 12.7837 3.9241 15.0097 3.9241H15.0479C16.0782 3.9241 17.0704 4.3375 17.8018 5.0689C18.5777 5.84482 19.0165 6.90693 19.0038 8.00721ZM24.6006 26.7119C24.6006 27.8249 23.6975 28.728 22.5845 28.728H7.47316C6.36017 28.728 5.45705 27.8249 5.45705 26.7119V16.0526C5.45705 14.9396 6.36017 14.0365 7.47316 14.0365H22.5845C23.6975 14.0365 24.6006 14.9396 24.6006 16.0526V26.7119Z" fill="#75ABD6"/>
<path d="M17.1972 20.9878C16.9173 20.002 16.0206 19.3279 14.9966 19.3279C13.731 19.3279 12.7007 20.3518 12.7007 21.6238C12.7007 22.6478 13.3748 23.5445 14.3606 23.8244V25.6052C14.3606 25.955 14.6468 26.2412 14.9966 26.2412C15.3464 26.2412 15.6326 25.955 15.6326 25.6052V23.8244C16.8474 23.4746 17.5533 22.2026 17.1972 20.9878ZM14.9966 22.6414C14.4306 22.6414 13.9727 22.1835 13.9727 21.6175C13.9727 21.0514 14.4306 20.5935 14.9966 20.5935C15.5627 20.5935 16.0206 21.0514 16.0206 21.6175C16.0206 22.1835 15.5627 22.6414 14.9966 22.6414Z" fill="#75ABD6"/>
</svg>
