<svg width="44" height="44" viewBox="0 0 44 44" fill="none" xmlns="http://www.w3.org/2000/svg">
<g clip-path="url(#clip0_0_702)">
<path d="M22 0C12.903 0 5.5 7.45433 5.5 16.6192C5.5 29.6413 20.449 43.087 21.0852 43.6517C21.3473 43.8845 21.6737 44 22 44C22.3263 44 22.6527 43.8845 22.9148 43.6535C23.551 43.087 38.5 29.6413 38.5 16.6192C38.5 7.45433 31.097 0 22 0ZM22 25.6667C16.9455 25.6667 12.8333 21.5545 12.8333 16.5C12.8333 11.4455 16.9455 7.33333 22 7.33333C27.0545 7.33333 31.1667 11.4455 31.1667 16.5C31.1667 21.5545 27.0545 25.6667 22 25.6667Z" fill="#75ABD6"/>
</g>
<defs>
<clipPath id="clip0_0_702">
<rect width="44" height="44" fill="white"/>
</clipPath>
</defs>
</svg>
