<svg width="287" height="287" viewBox="0 0 287 287" fill="none" xmlns="http://www.w3.org/2000/svg">
<path fill-rule="evenodd" clip-rule="evenodd" d="M143.5 257C206.184 257 257 206.184 257 143.5C257 80.8157 206.184 30 143.5 30C80.8157 30 30 80.8157 30 143.5C30 206.184 80.8157 257 143.5 257ZM143.5 287C222.753 287 287 222.753 287 143.5C287 64.2471 222.753 0 143.5 0C64.2471 0 0 64.2471 0 143.5C0 222.753 64.2471 287 143.5 287Z" fill="#E0E7EC" fill-opacity="0.2"/>
<path d="M72 28C72 43.464 59.464 56 44 56C28.536 56 16 43.464 16 28C16 12.536 28.536 0 44 0C59.464 0 72 12.536 72 28Z" fill="#BFD2E1"/>
<path d="M262 237.5C262 242.747 257.747 247 252.5 247C247.253 247 243 242.747 243 237.5C243 232.253 247.253 228 252.5 228C257.747 228 262 232.253 262 237.5Z" fill="#E2EDF5"/>
</svg>
